<?xml version="1.0" encoding="UTF-8" standalone="no"?>
<!DOCTYPE svg PUBLIC "-//W3C//DTD SVG 1.1//EN" "http://www.w3.org/Graphics/SVG/1.1/DTD/svg11.dtd">
<svg width="100%" height="100%" viewBox="0 0 337 131" version="1.1" xmlns="http://www.w3.org/2000/svg" xmlns:xlink="http://www.w3.org/1999/xlink" xml:space="preserve" xmlns:serif="http://www.serif.com/" style="fill-rule:evenodd;clip-rule:evenodd;stroke-linejoin:round;stroke-miterlimit:2;">
    <g transform="matrix(1,0,0,1,30.9355,29.4546)">
        <path d="M-1.219,0.551C-0.415,0.193 0.454,0.009 1.334,0.009C1.496,0.009 1.656,0.009 1.802,0.009C2.241,0.009 2.676,0.1 3.079,0.276C3.857,0.616 5.101,1.161 5.101,1.161L8.886,3.3L12.341,5.439L21.556,11.034L26.328,13.831L32.91,17.78L38.176,20.907L41.631,23.046L46.897,26.172L51.011,28.641L54.795,30.944L56.605,32.261C56.605,32.261 57.238,32.83 57.719,33.263C58.072,33.581 58.384,33.942 58.648,34.337C58.741,34.477 58.839,34.623 58.927,34.756C59.134,35.066 59.304,35.399 59.435,35.748C59.498,35.916 59.566,36.097 59.621,36.243C59.695,36.44 59.753,36.643 59.794,36.849C59.794,36.85 59.794,36.851 59.794,36.851C59.862,37.191 59.896,37.536 59.896,37.882C59.896,38.201 59.896,38.623 59.896,39.016C59.896,39.772 59.764,40.523 59.506,41.233C59.486,41.288 59.467,41.341 59.448,41.393C59.309,41.775 59.111,42.132 58.862,42.453C58.526,42.885 58.086,43.45 58.086,43.45C58.086,43.45 57.505,44.031 57.168,44.368C57.013,44.524 56.842,44.663 56.659,44.786C56.016,45.215 54.466,46.248 54.466,46.248L50.846,48.387L44.1,52.336L40.973,54.311L37.024,56.779L32.417,59.576L29.948,61.057L22.708,65.335L19.417,67.31L16.291,69.285L12.835,71.424L9.873,73.234L5.759,75.538C5.759,75.538 4.202,76.316 3.483,76.676C3.246,76.794 2.995,76.88 2.736,76.932C2.719,76.935 2.702,76.939 2.686,76.942C2.432,76.993 2.173,77.019 1.914,77.019C1.7,77.019 1.434,77.019 1.219,77.019C0.957,77.019 0.697,76.973 0.45,76.883C0.197,76.791 -0.142,76.668 -0.427,76.564C-0.798,76.429 -1.146,76.237 -1.458,75.995C-1.891,75.657 -2.468,75.208 -2.468,75.208C-2.468,75.208 -2.786,74.891 -3.109,74.567C-3.557,74.12 -3.929,73.604 -4.212,73.038C-4.479,72.504 -4.772,71.917 -4.772,71.917L-4.937,71.259L-4.937,70.4C-4.937,69.558 -4.741,68.728 -4.364,67.976C-4.261,67.77 -4.156,67.558 -4.057,67.361C-3.767,66.781 -3.407,66.238 -2.984,65.745C-2.407,65.072 -1.646,64.184 -1.646,64.184L4.937,57.602L6.747,56.121L9.05,54.146L10.696,52.665L13.164,50.69L14.645,49.539L17.113,47.564L19.417,45.918L23.86,42.957L28.467,40.159L31.923,38.185L34.391,36.868L34.391,36.539L28.961,33.906L24.354,31.438L20.404,29.299L16.949,27.324L14.151,25.679L12.341,24.527L12.506,29.792L12.506,43.779L10.86,45.26L4.607,49.539L1.646,51.678L-0.658,53.488L-1.975,54.64L-4.114,56.285L-5.595,57.437L-5.759,57.437L-5.759,9.101C-5.759,7.872 -5.595,6.648 -5.272,5.462C-5.272,5.462 -5.272,5.462 -5.272,5.462C-5.268,5.447 -5.262,5.432 -5.255,5.418C-5.13,5.167 -3.949,2.806 -3.949,2.806L-3.126,1.819L-1.481,0.667C-1.481,0.667 -1.375,0.62 -1.219,0.551Z" style="fill:rgb(202,58,48);fill-rule:nonzero;"/>
    </g>
    <g transform="matrix(1,0,0,1,275.129,56.2764)">
        <path d="M0,0.009L2.304,0.009L5.924,0.338L7.898,0.832L9.544,1.49L11.354,2.642L13,4.123L14.645,6.591L15.468,8.73L15.468,9.882L15.303,10.046L6.253,10.046L5.101,7.907L5.101,7.578L3.456,7.084L2.304,6.755L0.494,6.755L-1.975,7.414L-2.962,8.236L-3.291,9.059L-3.291,10.046L-2.139,11.363L-0.329,12.186L2.797,12.844L3.949,13.173L6.747,13.502L8.721,14.16L10.86,14.818L13,15.97L15.139,17.945L16.126,19.59L16.455,21.071L16.455,25.514L16.126,27.324L15.139,29.134L13.493,30.944L11.848,32.096L9.873,33.083L6.417,34.071L4.607,34.235L-0.494,34.235L-2.962,33.906L-3.785,33.413L-4.937,33.248L-6.582,32.59L-8.557,31.438L-10.696,29.463L-11.848,27.818L-12.67,25.35L-12.835,24.691L-12.835,23.046L-12.506,22.881L-4.114,22.881L-3.62,23.21L-3.126,25.185L-2.468,26.008L-2.468,26.337L-0.823,27.16L4.607,27.16L6.253,26.337L6.911,25.35L7.076,23.869L6.417,22.388L4.937,21.565L4.114,21.236L2.139,21.071L0.658,20.413L-0.658,20.249L-1.81,20.249L-2.797,19.919L-3.62,19.426L-4.607,19.426L-5.924,18.932L-8.228,17.78L-10.202,15.97L-11.354,14.325L-11.848,13.337L-12.012,12.186L-12.012,9.388L-11.848,7.414L-10.86,5.11L-9.379,3.3L-8.228,2.312L-6.582,1.325L-4.607,0.502L-2.304,0.173L0,0.009Z" style="fill:rgb(254,254,254);fill-rule:nonzero;"/>
    </g>
    <g transform="matrix(1,0,0,1,209.802,56.4409)">
        <path d="M0,0.009L6.417,0.009L9.05,0.502L11.683,1.654L13.987,3.3L15.303,4.616L16.784,6.755L17.607,8.565L18.265,10.211L18.43,11.198L17.936,11.527L12.177,11.692L9.215,11.692L8.392,11.527L7.076,9.059L6.088,8.236L4.278,7.414L2.962,7.249L0.987,7.743L-0.823,8.73L-1.975,10.046L-2.797,11.856L-3.126,14.325L-3.126,18.932L-2.797,21.565L-2.139,23.046L-0.823,24.856L0.823,25.843L1.81,26.172L3.785,26.172L5.266,25.843L6.747,25.021L7.898,23.704L8.886,21.729L18.265,21.729L18.101,23.046L16.949,26.337L15.797,28.476L13.987,30.451L11.683,32.096L9.708,33.083L6.747,33.906L5.101,34.071L0.658,34.071L-1.316,33.742L-3.949,32.754L-5.759,31.767L-7.898,29.957L-9.215,28.641L-10.696,26.666L-11.848,24.198L-12.506,22.059L-12.835,18.768L-12.835,16.135L-12.506,11.527L-11.519,8.73L-10.202,6.262L-8.886,4.452L-7.405,2.971L-4.443,1.161L-2.139,0.338L0,0.009Z" style="fill:rgb(254,254,254);fill-rule:nonzero;"/>
    </g>
    <g transform="matrix(1,0,0,1,305.735,48.2134)">
        <path d="M0,0.009L0.658,0.009L0.823,9.059L7.405,9.059L7.405,15.806L7.076,16.135L0.823,16.135L0.823,30.615L1.152,32.425L1.646,33.248L2.962,33.906L3.456,34.071L5.595,34.071L6.911,33.906L7.076,34.071L7.076,41.805L6.911,41.969L5.759,42.134L2.139,42.298L0,42.134L-3.291,41.146L-5.266,39.83L-6.911,38.185L-7.898,36.539L-8.228,35.058L-8.392,32.754L-8.392,16.135L-9.708,16.299L-12.67,16.299L-13,15.97L-13,9.224L-12.835,9.059L-8.392,9.059L-8.392,2.477L-7.898,1.654L-6.417,1.161L-2.633,0.832L-0.658,0.338L0,0.009Z" style="fill:rgb(254,254,254);fill-rule:nonzero;"/>
    </g>
    <g transform="matrix(1,0,0,1,147.602,56.6055)">
        <path d="M0,0.009L8.886,0.009L9.05,0.502L9.05,33.413L8.886,33.577L0.329,33.577L-0.165,33.248L-0.329,32.59L-0.165,0.173L0,0.009Z" style="fill:rgb(254,254,254);fill-rule:nonzero;"/>
    </g>
    <path d="M184.297,44.602L193.676,44.602L193.676,90.018L193.347,90.183L184.297,90.183L184.132,89.195L184.132,86.892L184.297,84.752L183.474,85.411L182.487,86.892L181.17,88.043L179.36,89.36L177.057,90.347L175.74,90.512L171.791,90.512L170.146,90.018L167.513,88.702L166.032,87.55L164.386,86.069L162.905,84.259L161.589,81.626L160.766,78.993L160.108,75.538L160.108,70.93L160.766,67.639L161.589,65.171L162.576,63.196L163.893,61.551L166.525,58.918L168.829,57.437L171.133,56.614L173.272,56.285L176.069,56.285L178.538,56.779L180.512,57.931L182.98,60.399L183.968,61.551L184.132,44.767L184.297,44.602ZM179.196,82.449L177.879,82.778L175.905,82.778L174.259,82.284L172.943,81.297L171.462,79.816L170.804,78.5L170.475,77.512L170.146,74.057L170.31,70.437L170.639,68.297L171.956,65.994L173.272,64.842L175.082,64.184L176.234,64.019L178.044,64.019L180.348,64.513L181.993,65.994L182.98,67.31L183.968,69.449L184.132,70.272L184.297,74.221L184.132,76.36L183.474,78.335L182.322,80.145L181.17,81.297L179.196,82.449Z" style="fill:rgb(254,254,254);"/>
    <path d="M109.92,44.602L128.679,44.602L131.147,44.931L132.463,45.26L134.273,45.589L137.071,46.906L139.045,48.387L140.197,49.539L141.514,51.513L142.501,53.817L142.501,57.068C142.501,58.501 142.167,59.914 141.526,61.196C141.473,61.303 141.423,61.403 141.379,61.492C141.25,61.75 141.095,61.995 140.918,62.222C140.578,62.66 140.033,63.361 140.033,63.361L137.564,65.006L135.919,65.5L135.919,65.829L139.868,67.804L141.514,69.12L142.666,70.601L143.488,72.247L143.982,73.892L144.311,74.715L144.311,79.158L143.817,81.132L142.995,83.107L142.172,84.588L140.691,86.233L139.21,87.385L137.235,88.537L134.932,89.36L129.337,90.183L110.084,90.183L109.755,90.018L109.591,89.36L109.591,44.931L109.92,44.602ZM129.666,81.791L124.565,81.955L119.299,81.955L119.135,69.943L119.299,69.778L128.35,69.778L130.324,70.272L132.134,71.259L133.286,72.576L133.944,74.057L134.109,74.879L134.109,77.348L133.615,78.829L132.628,80.145L131.476,81.132L129.666,81.791ZM119.299,52.336L127.262,52.336C127.764,52.336 128.262,52.424 128.733,52.595C128.787,52.615 128.842,52.635 128.897,52.654C129.514,52.879 130.084,53.216 130.579,53.649C130.875,53.908 131.147,54.146 131.147,54.146C131.147,54.146 131.202,54.216 131.281,54.318C131.686,54.836 131.975,55.435 132.129,56.074C132.16,56.201 132.19,56.326 132.217,56.439C132.291,56.745 132.332,57.058 132.34,57.372C132.351,57.836 132.367,58.475 132.367,58.475C132.367,58.475 132.349,58.562 132.32,58.701C132.063,59.93 131.428,61.048 130.505,61.899C130.436,61.962 130.395,62 130.395,62C130.395,62 129.87,62.259 129.471,62.455C129.18,62.599 128.878,62.719 128.567,62.814C128.238,62.915 127.856,63.032 127.856,63.032C127.856,63.032 127.711,63.052 127.523,63.079C126.978,63.157 126.428,63.196 125.877,63.196L119.958,63.196L119.299,63.032L119.299,52.336Z" style="fill:rgb(254,254,254);"/>
    <g transform="matrix(1,0,0,1,151.387,42.7832)">
        <path d="M0,0.009L1.481,0.009L3.456,0.832L4.772,1.983L5.759,3.464L6.088,4.452L6.088,6.262L5.43,7.907L4.607,9.059L2.797,10.211L1.152,10.54L-0.987,10.375L-2.633,9.553L-3.456,8.895L-4.278,7.414L-4.443,6.426L-4.443,4.616L-4.114,3.135L-3.126,1.819L-1.975,0.832L0,0.009Z" style="fill:rgb(254,254,254);fill-rule:nonzero;"/>
    </g>
    <path d="M242.219,56.45L248.472,56.45L250.94,56.779L254.066,58.26L255.712,59.576L257.193,61.057L258.18,62.703L258.838,64.184L259.497,66.652L259.661,67.804L259.661,90.018L251.104,90.183L250.94,84.752L250.446,84.917L249.294,86.563L247.32,88.537L245.51,89.689L243.7,90.347L242.383,90.512L238.105,90.512L236.624,90.183L234.649,89.36L232.839,88.043L231.688,86.892L230.7,85.246L229.877,82.942L229.877,79.816L230.865,76.689L232.51,74.715L234.32,73.234L235.966,72.411L238.763,71.424L241.231,71.095L241.231,70.766L245.674,70.107L248.801,69.614L249.953,69.614L250.117,67.146L249.624,65.5L248.801,64.184L248.801,63.854L247.649,63.525L246.003,63.361L243.7,63.361L241.725,63.854L240.738,64.513L240.08,65.994L239.586,67.146L238.599,67.31L230.7,67.475L230.865,65.994L231.852,63.032L232.839,61.551L234.32,59.905L236.13,58.424L237.447,57.602L239.257,56.943L240.573,56.614L242.219,56.45ZM249.294,75.208L250.117,75.373L250.282,76.525L250.282,78.17L249.788,79.651L248.801,80.968L247.649,82.284L246.003,83.436L245.51,83.601L242.219,83.765L241.067,83.271L240.08,82.449L239.421,81.297L239.257,79.98L240.08,78.335L240.738,77.512L242.383,76.525L245.016,75.702L246.003,75.538L248.636,75.373L249.294,75.208Z" style="fill:rgb(254,254,254);"/>
</svg>
